Coordinates
version=1
nRows=12
nColumns=24
inDegrees=yes

Units are S.I. units (second, meters, Newtons, ...)
Angles are in degrees.

endheader
time	pelvis_tilt	pelvis_list	pelvis_rotation	pelvis_tx	pelvis_ty	pelvis_tz	hip_flexion_r	hip_adduction_r	hip_rotation_r	knee_angle_r	ankle_angle_r	subtalar_angle_r	mtp_angle_r	hip_flexion_l	hip_adduction_l	hip_rotation_l	knee_angle_l	ankle_angle_l	subtalar_angle_l	mtp_angle_l	lumbar_extension	lumbar_bending	lumbar_rotation
      3.37000000	     -8.69909733	     -2.35593094	     11.65491015	     -1.32903212	     -0.04468367	      0.60626862	     36.24175557	     -3.96579158	    -20.37793816	    -14.25679392	     -0.57652390	      4.16716797	      0.50251123	     -7.76155334	     -0.11289433	      7.42375976	    -11.79596207	     17.01197551	     14.87000262	     -0.00494574	      6.83385577	     -0.31046305	    -15.47421257
      3.37500000	     -8.76129145	     -2.61609605	     11.67507413	     -1.32167719	     -0.04588011	      0.60635000	     36.32184517	     -3.66799263	    -20.20223807	    -14.80646696	     -1.13246061	      3.91515495	      0.44941298	     -7.83804148	     -0.51672095	      7.10366462	    -12.36798682	     17.11549546	     15.56443837	      0.27444721	      7.08396722	      0.00890781	    -15.44625962
      3.38000000	     -8.82421935	     -2.89067281	     11.62841174	     -1.31426590	     -0.04704248	      0.60653516	     36.42022155	     -3.32051804	    -19.98954380	    -15.38018992	     -1.86199434	      3.52440233	      0.53700156	     -7.89683360	     -0.93820241	      6.63465135	    -12.97906204	     17.19350117	     16.36550406	      0.55502499	      7.34206053	      0.35140695	    -15.33267784
      3.38500000	     -8.89969739	     -3.21149531	     11.58083884	     -1.30682218	     -0.04812517	      0.60670667	     36.52073038	     -2.93541298	    -19.74577572	    -15.92975517	     -2.73407374	      3.06151443	      0.64341077	     -7.90408328	     -1.40608259	      6.18893380	    -13.64770823	     17.22218189	     17.15507788	      0.84320574	      7.62703872	      0.74718370	    -15.23004342
      3.39000000	     -8.96083385	     -3.53244434	     11.48681206	     -1.29939109	     -0.04914260	      0.60697716	     36.64581046	     -2.52716163	    -19.49724328	    -16.54623123	     -3.70601437	      2.42484670	      0.74154461	     -7.90361900	     -1.88227444	      5.62400979	    -14.35661661	     17.20119245	     18.02287486	      1.18426678	      7.88878610	      1.14876747	    -15.07637618
      3.39500000	     -9.02980206	     -3.89377939	     11.38555535	     -1.29194232	     -0.05006891	      0.60726093	     36.78158605	     -2.08120343	    -19.20973070	    -17.16614447	     -4.72036193	      1.71333561	      0.75895202	     -7.85275075	     -2.39977729	      5.07577965	    -15.12961008	     17.10548098	     18.86112002	      1.56249042	      8.16622893	      1.59238689	    -14.92845038
      3.40000000	     -9.09847451	     -4.27664851	     11.25755285	     -1.28449334	     -0.05090096	      0.60756265	     36.93173429	     -1.60223541	    -18.86496886	    -17.81536826	     -5.74676993	      0.88542810	      0.68043318	     -7.76270459	     -2.94288705	      4.47338601	    -15.96877854	     16.93439265	     19.74133644	      2.00818861	      8.44482314	      2.06980486	    -14.74808086
      3.40500000	     -9.16377566	     -4.67067033	     11.10661461	     -1.27705599	     -0.05164159	      0.60789250	     37.09568035	     -1.09822520	    -18.46390656	    -18.50920832	     -6.72098817	     -0.05408605	      0.49889807	     -7.63305584	     -3.50307049	      3.82449267	    -16.88193196	     16.66942692	     20.65420099	      2.54049204	      8.71546148	      2.56614368	    -14.54852151
      3.41000000	     -9.22619796	     -5.07054987	     10.92960223	     -1.26962994	     -0.05229108	      0.60825557	     37.27140626	     -0.56859154	    -18.00682938	    -19.24912006	     -7.60788677	     -1.08819309	      0.21632150	     -7.46263992	     -4.07736797	      3.12833341	    -17.87211447	     16.29788284	     21.60641226	      3.18602885	      8.97665554	      3.07616456	    -14.32685201
      3.41500000	     -9.27827790	     -5.46353889	     10.73092113	     -1.26221768	     -0.05283763	      0.60863152	     37.43873115	     -0.02254053	    -17.48928346	    -20.02076670	     -8.35604285	     -2.17025905	     -0.14799135	     -7.25322395	     -4.65630125	      2.36986214	    -18.95208218	     15.77995931	     22.60052661	      4.00481022	      9.21752127	      3.59136960	    -14.05630896
      3.42000000	     -9.33609725	     -5.86979556	     10.52430020	     -1.25481612	     -0.05330684	      0.60904864	     37.61156107	      0.55523843	    -16.93400051	    -20.81311218	     -8.96876871	     -3.30480449	     -0.56330428	     -6.98352186	     -5.26069063	      1.61400125	    -20.12235680	     15.13878207	     23.57471491	      4.91303739	      9.45976617	      4.11255310	    -13.83783390
      3.42500000	     -9.36821260	     -6.25620962	     10.26615073	     -1.24743299	     -0.05366919	      0.60952409	     37.75237907	      1.16125365	    -16.34688334	    -21.62073915	     -9.43187077	     -4.38502699	     -0.99493696	     -6.71320236	     -5.86356852	      0.81137189	    -21.34022377	     14.30211851	     24.59796932	      6.18638375	      9.65529049	      4.63483176	    -13.48220448
